<?xml version="1.0" standalone="no"?>
<!DOCTYPE svg PUBLIC "-//W3C//DTD SVG 20010904//EN"
 "http://www.w3.org/TR/2001/REC-SVG-20010904/DTD/svg10.dtd">
<svg version="1.0" xmlns="http://www.w3.org/2000/svg"
 width="800.000000pt" height="800.000000pt" viewBox="0 0 800.000000 800.000000"
 preserveAspectRatio="xMidYMid meet">

<g transform="translate(0.000000,800.000000) scale(0.100000,-0.100000)"
fill="#000000" stroke="none">
<path d="M1369 5404 c-8 -9 -32 -50 -54 -92 -50 -94 -80 -112 -204 -123 -103
-9 -108 -10 -193 -66 -87 -57 -159 -137 -203 -226 -45 -92 -56 -152 -45 -247
29 -238 161 -402 371 -461 24 -6 99 -12 166 -12 l121 1 6 -32 c3 -17 8 -108
12 -202 l7 -171 44 -22 c24 -12 90 -49 145 -82 244 -147 366 -170 768 -145
181 12 377 15 750 14 278 -2 519 1 536 5 31 8 31 8 38 90 19 250 15 1282 -5
1301 -2 2 -116 12 -254 21 -304 20 -774 30 -870 18 -66 -9 -73 -8 -126 19 -54
28 -56 28 -107 13 -41 -12 -67 -14 -126 -6 -60 7 -83 6 -119 -7 -42 -15 -44
-15 -65 6 -25 25 -85 27 -117 5 -11 -7 -33 -13 -50 -13 -23 0 -46 -14 -95 -58
-36 -32 -112 -94 -170 -139 -185 -143 -239 -204 -200 -228 17 -11 11 -47 -9
-52 -17 -4 -19 -12 -14 -78 5 -68 4 -74 -17 -85 -38 -21 -187 -9 -240 18 -197
103 -250 388 -103 562 49 58 77 71 181 81 75 7 111 16 157 38 110 54 185 137
200 222 8 41 -9 111 -31 134 -20 20 -68 19 -85 -1z m2130 -570 l31 -6 0 -594
0 -594 -57 0 c-32 0 -92 5 -133 11 -41 5 -133 10 -205 11 -107 1 -132 4 -142
17 -10 13 -15 14 -32 4 -34 -21 -128 -16 -173 9 -33 19 -42 20 -60 9 -13 -8
-36 -10 -68 -6 -30 4 -50 3 -55 -4 -8 -14 -48 -14 -62 0 -17 17 -332 12 -381
-5 -21 -8 -45 -10 -53 -6 -8 4 -63 10 -124 13 -127 5 -206 31 -359 117 -49 28
-92 50 -96 50 -27 0 -30 39 -30 342 -1 305 5 368 31 368 18 0 139 83 237 162
l92 76 153 7 c471 20 1417 33 1486 19z"/>
<path d="M1577 4409 c-29 -17 -47 -72 -47 -147 0 -58 4 -75 29 -114 46 -72
107 -102 203 -99 92 3 173 151 138 255 -15 46 -69 84 -147 102 -69 16 -151 18
-176 3z m201 -176 c-2 -20 -9 -29 -26 -31 -30 -5 -42 26 -17 44 31 23 47 17
43 -13z"/>
<path d="M6430 5414 c-186 -35 -303 -75 -399 -135 -171 -107 -284 -230 -362
-394 -58 -121 -78 -198 -88 -328 -42 -540 297 -955 843 -1032 324 -46 659 57
861 265 l50 51 -40 36 c-22 20 -82 76 -133 125 -51 48 -95 88 -98 88 -3 0 -35
-26 -70 -59 -115 -105 -236 -151 -400 -151 -177 0 -307 51 -420 164 -75 75
-132 175 -153 266 -16 69 -13 257 4 324 37 140 146 285 266 354 72 41 202 72
303 72 163 0 298 -55 426 -174 22 -20 43 -36 47 -36 4 1 67 57 138 125 l130
124 -50 51 c-65 67 -193 152 -285 190 -127 52 -229 72 -395 75 -82 2 -161 1
-175 -1z"/>
<path d="M4130 4468 l0 -923 632 3 c348 1 652 2 676 2 l42 0 0 170 0 170 -462
2 -463 3 -3 748 -2 747 -210 0 -210 0 0 -922z"/>
<path d="M4980 2915 c0 -14 2 -25 4 -25 2 0 11 -3 20 -6 13 -5 16 1 16 25 0
24 -4 31 -20 31 -15 0 -20 -7 -20 -25z"/>
<path d="M3536 2914 c-3 -9 -6 -25 -6 -37 0 -35 -16 -55 -32 -39 -20 20 -73
14 -102 -13 -21 -19 -26 -33 -26 -69 0 -24 3 -52 6 -61 12 -29 59 -45 121 -40
32 2 61 4 66 5 4 0 7 61 7 135 0 109 -3 135 -14 135 -8 0 -17 -7 -20 -16z
m-42 -104 c31 -11 46 -71 25 -96 -20 -24 -51 -33 -77 -21 -42 19 -43 93 -2
114 30 15 24 15 54 3z"/>
<path d="M3965 2913 c-80 -18 -110 -55 -110 -136 0 -53 3 -61 32 -87 88 -79
233 -29 233 81 0 51 -22 103 -52 122 -27 18 -74 27 -103 20z m75 -56 c30 -15
46 -71 31 -110 -25 -66 -127 -72 -164 -9 -47 81 45 164 133 119z"/>
<path d="M1350 2901 c0 -6 4 -12 8 -15 5 -3 26 -33 48 -68 29 -47 40 -77 44
-118 4 -40 9 -55 20 -55 11 0 17 15 20 50 6 52 23 92 71 162 35 50 35 55 7 51
-16 -2 -34 -22 -56 -60 -37 -62 -52 -65 -72 -17 -19 45 -49 79 -71 79 -10 0
-19 -4 -19 -9z"/>
<path d="M2418 2900 c-1 -5 -1 -63 2 -127 l5 -118 62 -3 c34 -2 80 2 102 8 35
9 41 15 47 44 3 20 1 43 -6 56 -7 14 -9 39 -5 66 5 35 2 47 -14 63 -18 18 -34
21 -105 21 -46 0 -86 -4 -88 -10z m155 -32 c22 -17 11 -56 -18 -64 -12 -3 -37
-4 -56 -2 -30 3 -34 7 -37 35 -2 23 1 32 15 36 36 9 79 7 96 -5z m15 -129 c4
-36 -18 -51 -75 -47 -46 3 -48 4 -51 35 -4 35 10 42 83 39 35 -1 40 -4 43 -27z"/>
<path d="M4752 2894 c-17 -12 -22 -25 -22 -59 l0 -44 58 -16 c31 -9 63 -18 70
-20 16 -6 15 -36 -1 -59 -13 -17 -17 -18 -67 -3 -56 17 -70 15 -70 -8 0 -32
130 -46 168 -19 19 13 23 23 20 62 -3 42 -6 48 -33 56 -77 23 -105 39 -105 61
0 30 22 37 76 25 25 -6 50 -8 55 -5 14 10 11 32 -7 39 -31 12 -120 6 -142 -10z"/>
<path d="M5874 2865 c-15 -29 -17 -39 -6 -55 6 -11 12 -42 12 -70 0 -59 24
-90 69 -90 39 0 48 16 19 31 -35 19 -47 40 -48 85 0 38 2 42 31 48 36 7 35 28
-2 36 -13 3 -28 16 -34 28 -13 30 -19 28 -41 -13z"/>
<path d="M1868 2823 c-9 -70 5 -134 32 -154 21 -16 36 -18 93 -13 l67 7 0 83
c0 91 -5 114 -26 114 -11 0 -14 -16 -14 -65 0 -52 -4 -69 -20 -85 -39 -39 -89
-15 -91 43 -1 18 -2 39 -3 47 -2 8 -3 25 -4 38 -3 37 -29 26 -34 -15z"/>
<path d="M4189 2800 c-3 -121 -4 -117 31 -135 23 -12 46 -14 95 -9 l65 7 0 93
c0 87 -1 94 -20 94 -18 0 -20 -7 -20 -60 0 -73 -24 -106 -68 -95 -36 9 -42 21
-42 82 0 61 -7 83 -26 83 -10 0 -14 -16 -15 -60z"/>
<path d="M6196 2853 c-3 -4 -6 -33 -6 -65 0 -74 -12 -98 -49 -98 -40 0 -49 16
-53 90 -3 57 -5 65 -23 65 -17 0 -20 -8 -23 -60 -6 -116 18 -141 123 -130 l65
7 0 93 c0 70 -3 94 -14 98 -8 3 -17 3 -20 0z"/>
<path d="M1633 2826 c-24 -21 -28 -32 -28 -76 0 -46 4 -55 30 -76 32 -25 68
-30 108 -15 42 16 57 39 57 87 0 91 -99 138 -167 80z m115 -34 c21 -27 14 -69
-14 -91 -34 -27 -40 -26 -69 4 -32 31 -32 59 0 91 27 27 59 26 83 -4z"/>
<path d="M2134 2841 c-2 -2 -4 -47 -4 -98 0 -92 1 -94 23 -91 20 3 22 8 22 65
1 64 7 77 46 97 44 22 34 35 -26 33 -31 -1 -58 -4 -61 -6z"/>
<path d="M2709 2845 c-5 -1 -3 -187 2 -191 4 -2 14 -1 23 2 11 4 16 19 16 53
0 70 9 90 46 106 19 8 34 18 34 23 0 6 -89 12 -121 7z"/>
<path d="M2887 2843 c-9 -8 -9 -43 0 -43 4 0 22 5 40 12 45 16 56 3 56 -67 0
-64 -11 -80 -47 -71 -35 9 -35 43 0 56 35 14 20 34 -19 26 -40 -8 -57 -23 -57
-52 0 -32 36 -54 91 -54 77 0 79 2 79 85 0 68 -2 75 -26 94 -26 20 -102 30
-117 14z"/>
<path d="M3110 2749 c0 -92 1 -99 20 -99 18 0 20 7 20 58 0 96 5 103 59 100
l46 -3 3 -77 c3 -70 5 -78 22 -78 11 0 20 6 21 13 2 33 -3 134 -7 148 -7 25
-51 38 -121 38 l-63 -1 0 -99z"/>
<path d="M4454 2841 c-2 -2 -4 -47 -4 -98 0 -92 1 -94 23 -91 20 3 22 10 27
77 l5 73 35 12 c19 6 33 16 30 21 -5 10 -107 15 -116 6z"/>
<path d="M4992 2838 c-8 -8 -12 -45 -12 -100 0 -80 2 -88 19 -88 18 0 20 9 23
88 4 112 -1 129 -30 100z"/>
<path d="M5116 2825 c-21 -19 -26 -33 -26 -69 0 -40 4 -48 36 -72 33 -26 38
-27 71 -15 49 18 66 1 32 -35 -24 -26 -41 -27 -106 -8 -17 5 -23 2 -23 -9 0
-51 143 -54 174 -4 13 21 28 199 19 225 -3 8 -28 12 -77 12 -64 0 -76 -3 -100
-25z m109 -15 c23 -9 26 -14 23 -52 l-3 -43 -55 0 -55 0 0 40 c0 32 5 42 25
52 30 15 32 16 65 3z"/>
<path d="M5377 2843 c-4 -3 -7 -48 -7 -100 0 -86 1 -93 20 -93 17 0 20 7 20
49 0 27 3 63 6 80 6 28 10 31 45 31 21 0 41 -6 46 -12 4 -7 8 -42 8 -78 0 -60
2 -65 23 -68 21 -3 22 0 22 73 0 67 -3 79 -25 100 -20 21 -33 25 -88 25 -35 0
-67 -3 -70 -7z"/>
<path d="M5648 2839 c-35 -20 -20 -32 31 -25 44 6 51 4 61 -14 11 -20 4 -117
-10 -125 -3 -2 -16 -1 -28 2 -29 7 -30 49 -2 58 30 10 24 25 -10 25 -31 0 -70
-30 -70 -52 1 -46 66 -68 150 -51 l33 6 -7 76 c-5 63 -10 79 -29 93 -24 19
-92 23 -119 7z"/>
<path d="M6309 2842 c0 -4 -1 -47 -2 -97 -1 -86 0 -90 21 -93 21 -3 22 0 22
58 0 75 10 96 51 104 50 10 29 30 -34 33 -31 1 -57 -1 -58 -5z"/>
<path d="M6481 2813 c-25 -31 -30 -44 -25 -68 13 -65 53 -99 112 -97 41 2 62
17 62 46 0 12 7 31 15 43 31 44 -29 113 -98 113 -29 0 -41 -7 -66 -37z m112
-10 c27 -15 -15 -53 -59 -53 -14 0 -20 50 -8 63 7 6 49 0 67 -10z m27 -78 c0
-17 -9 -29 -29 -40 -27 -13 -31 -13 -52 4 -29 23 -17 41 27 41 21 0 33 4 29
10 -3 6 1 10 9 10 10 0 16 -9 16 -25z"/>
<path d="M3647 2703 c-13 -12 -8 -115 5 -111 13 5 40 88 33 106 -5 13 -27 16
-38 5z"/>
</g>
</svg>
